<svg width="18" height="24" viewBox="0 0 18 24" fill="none" xmlns="http://www.w3.org/2000/svg">
<path d="M17.5571 11.8377C17.1062 11.5484 16.5025 11.6743 16.209 12.1188C15.8178 12.7116 15.3441 13.2555 14.802 13.7352C14.2766 14.1999 13.6861 14.5974 13.0462 14.9169C12.427 15.226 11.7629 15.4549 11.0724 15.5974C10.4043 15.7351 9.71393 15.7855 9.02115 15.7466C8.3516 15.7094 7.68355 15.5835 7.03559 15.3723C6.40936 15.1683 5.80786 14.8805 5.24758 14.5173C4.70664 14.1664 4.21036 13.7421 3.77254 13.2563C3.35031 12.7874 2.98923 12.2602 2.6998 11.6892C2.42056 11.1385 2.21476 10.5477 2.08796 9.93329C1.9658 9.34133 1.92338 8.72972 1.9622 8.11545C1.99967 7.52379 2.11778 6.93346 2.31339 6.36101C2.5015 5.81028 2.76605 5.28083 3.09955 4.78758C3.42016 4.31339 3.80732 3.87866 4.25053 3.49535C4.67636 3.12711 5.15525 2.81296 5.67386 2.56146C6.17194 2.32001 6.70629 2.14298 7.26177 2.03526C7.79477 1.93197 8.34591 1.89872 8.89914 1.93655C9.42974 1.97275 9.95899 2.07959 10.4724 2.2541C10.9638 2.42123 11.4364 2.65485 11.8765 2.9489C12.2975 3.22981 12.6832 3.56908 13.0231 3.95712C13.3478 4.32787 13.6245 4.74472 13.8451 5.1963C14.0559 5.62734 14.2092 6.0897 14.3008 6.57084C14.3883 7.0298 14.4136 7.50443 14.376 7.98128C14.3404 8.43537 14.2417 8.88872 14.0833 9.32892C13.9327 9.7474 13.7233 10.1495 13.4607 10.5242C13.2111 10.8803 12.9104 11.2063 12.5669 11.493C12.2406 11.7653 11.8738 11.9966 11.4769 12.1804C11.1005 12.3546 10.6964 12.4802 10.2759 12.5535C9.87805 12.6228 9.46661 12.6398 9.05262 12.6034C8.66157 12.5692 8.27096 12.482 7.89205 12.3446C7.53456 12.215 7.19102 12.0357 6.87086 11.812C6.56959 11.6014 6.2938 11.3479 6.05143 11.0584C5.8236 10.7862 5.63099 10.4803 5.47871 10.1489C5.33572 9.83827 5.23409 9.50432 5.17669 9.15662C5.12303 8.8308 5.11373 8.49374 5.14926 8.15476C5.18268 7.8378 5.26062 7.52128 5.38098 7.21377C5.4928 6.92769 5.64643 6.6524 5.83739 6.39558C6.01216 6.16078 6.23129 5.93691 6.47126 5.74866C6.6934 5.574 6.95435 5.42076 7.22535 5.30535C7.47581 5.19881 7.75655 5.12153 8.03759 5.08193C8.29629 5.04558 8.57583 5.04381 8.84593 5.07676C9.09399 5.1072 9.35255 5.17488 9.59387 5.2727C9.8145 5.36195 10.0356 5.48844 10.2331 5.63842C10.4132 5.77511 10.5842 5.94607 10.7278 6.13315C10.8577 6.30234 10.971 6.50153 11.0554 6.7087C11.1313 6.89548 11.1842 7.10561 11.2086 7.31632C11.2305 7.50502 11.2254 7.70968 11.1942 7.90769C11.1662 8.08457 11.1098 8.26913 11.0313 8.44157C10.9616 8.59422 10.864 8.74731 10.7486 8.88458C10.6492 9.00294 10.5193 9.11998 10.3829 9.21396C10.264 9.29567 10.1179 9.36882 9.97174 9.41965C9.84583 9.46339 9.69759 9.49279 9.554 9.5024C9.43199 9.51038 9.29364 9.50048 9.16399 9.47403C9.05727 9.4523 8.93526 9.40871 8.82944 9.35463C8.74251 9.31015 8.64763 9.24321 8.56879 9.17036C8.50658 9.11273 8.44018 9.03058 8.39132 8.95078C8.35984 8.89906 8.32912 8.82991 8.30723 8.76297C8.53806 8.97191 8.86676 9.06693 9.19502 8.98905C9.33097 8.95669 9.44818 8.92862 9.58877 8.84941C9.72307 8.77154 9.92347 8.5923 10.0228 8.43315C10.1029 8.30696 10.1951 8.07718 10.2168 7.88227C10.2327 7.73894 10.2226 7.5096 10.1637 7.31987C10.1248 7.19442 10.0333 6.9905 9.90309 6.82706C9.8154 6.71772 9.65832 6.56197 9.4813 6.45351C9.32257 6.35613 9.12232 6.27382 8.94576 6.23348C8.7584 6.19063 8.53536 6.17452 8.34965 6.19048C8.1476 6.20792 7.92832 6.26008 7.74845 6.33352C7.5533 6.41302 7.35155 6.53183 7.19507 6.6592C7.02315 6.79914 6.86277 6.97291 6.74361 7.14861C6.61486 7.33878 6.50739 7.5594 6.44084 7.76997C6.36889 7.99798 6.32692 8.25007 6.32288 8.47852C6.31823 8.72677 6.3506 8.99097 6.41371 9.22253C6.46182 9.39896 6.5543 9.66672 6.72143 9.94053C6.86397 10.1743 7.04233 10.3927 7.23644 10.5718C7.44568 10.7654 7.68685 10.9343 7.93326 11.0602C8.19796 11.1954 8.4868 11.2972 8.76844 11.3548C9.07106 11.4166 9.38897 11.4386 9.6859 11.4188C10.005 11.3974 10.328 11.3325 10.62 11.231C10.9318 11.1225 11.2353 10.9696 11.4982 10.7887C11.7786 10.5954 12.0384 10.3606 12.2493 10.1096C12.4744 9.84167 12.6678 9.53712 12.8082 9.22947C12.9575 8.90246 13.0651 8.54738 13.1195 8.20249C13.1771 7.83676 13.1856 7.45493 13.1444 7.09822C13.1006 6.71964 13.0037 6.33795 12.864 5.99395C12.7136 5.62453 12.5174 5.28097 12.281 4.97332C12.0309 4.64735 11.7418 4.35905 11.4217 4.11597C11.084 3.85974 10.7182 3.65095 10.3343 3.4955C9.92962 3.33162 9.50978 3.22213 9.0865 3.17011C8.64088 3.11529 8.19542 3.11869 7.76164 3.17987C7.30599 3.24414 6.86562 3.36561 6.45313 3.54116C6.0198 3.72557 5.61736 3.96259 5.25703 4.24571C4.87886 4.54287 4.54551 4.88377 4.26642 5.25896C3.97354 5.65276 3.73687 6.07774 3.56315 6.52207C3.38089 6.98769 3.26262 7.47015 3.21136 7.95631C3.15815 8.46404 3.17224 8.97132 3.25363 9.46472C3.33862 9.98013 3.4903 10.4772 3.70419 10.9418C3.92738 11.4275 4.21156 11.8779 4.54896 12.281C4.90074 12.7011 5.30289 13.0704 5.74431 13.3789C6.20431 13.7005 6.70074 13.9589 7.21935 14.147C7.7594 14.343 8.31803 14.4672 8.88025 14.5166C9.46481 14.5676 10.0492 14.5436 10.6158 14.4446C11.2052 14.3418 11.7735 14.1649 12.3052 13.9187C12.8574 13.6632 13.3691 13.3401 13.8261 12.9585C14.3006 12.5624 14.717 12.1106 15.0639 11.6156C15.4239 11.1018 15.712 10.5484 15.9197 9.97082C16.1356 9.37162 16.2699 8.75218 16.3189 8.12964C16.3697 7.48448 16.3351 6.84051 16.216 6.21575C16.0927 5.56868 15.8855 4.9448 15.6006 4.36171C15.3055 3.75823 14.9345 3.19937 14.4979 2.7011C14.0461 2.18539 13.5319 1.73352 12.9692 1.35789C12.3873 0.969409 11.7609 0.659836 11.1077 0.437594C10.4326 0.208111 9.73491 0.0675838 9.03359 0.0197071C8.30963 -0.0297951 7.58703 0.0140919 6.88615 0.14989C6.1628 0.290122 5.46567 0.52123 4.81411 0.837157C4.14216 1.16298 3.52028 1.57127 2.96585 2.05063C2.39418 2.54491 1.8937 3.10716 1.47822 3.72173C1.04999 4.35536 0.709743 5.03671 0.466926 5.74718C0.216764 6.47922 0.0656772 7.23564 0.0177132 7.99546C-0.0317496 8.77804 0.0225098 9.55884 0.178842 10.3157C0.339522 11.095 0.601374 11.8458 0.956907 12.5474C1.32278 13.2691 1.77994 13.9366 2.31579 14.5314C2.86707 15.1433 3.493 15.6783 4.17679 16.1218C4.87976 16.5775 5.63579 16.939 6.4242 17.1959C7.05193 17.4004 7.69569 17.5402 8.34456 17.615V23.0395C8.34456 23.57 8.78073 24 9.31882 24C9.85692 24 10.2931 23.57 10.2931 23.0395V17.6434C10.6897 17.6107 11.0834 17.5572 11.4711 17.4774C12.329 17.3005 13.155 17.0156 13.9265 16.6304C14.7187 16.235 15.451 15.7419 16.1033 15.1647C16.7726 14.5726 17.3576 13.9003 17.8422 13.1664C18.1357 12.7221 18.0081 12.127 17.5571 11.8377Z" fill="#FFA961"/>
</svg>
